/* XPM */
static char *graphic[] = {
/* width height num_colors chars_per_pixel */
"16 16 125 2", 
/* colors */
"   c None",
".  c #EBF2EA",
"X  c #71A16A",
"o  c #EDF3EC",
"O  c None",
"+  c #47863F",
"@  c #DFEADE",
"#  c #87B082",
"$  c #EDF3ED",
"%  c #599152",
"&  c #A1BF9D",
"*  c #A6C5A4",
"=  c #4F8A49",
"-  c #4E8B44",
";  c #508C46",
":  c #A5C3A4",
">  c #64985A",
",  c #528D48",
"<  c #6E9F65",
"1  c #CDDBCC",
"2  c #4F8A4A",
"3  c #43823E",
"4  c #689A5F",
"5  c #4A8740",
"6  c #AEC9A9",
"7  c #D2E1CF",
"8  c #DAE7D8",
"9  c #41813D",
"0  c #77A475",
"q  c #66995E",
"w  c #E8F0E7",
"e  c None",
"r  c #ECF2EB",
"t  c #9EBF9A",
"y  c #96B991",
"u  c #438240",
"i  c #488640",
"p  c #C8DAC6",
"a  c #70A06A",
"s  c #D6E3D5",
"d  c #AAC7A8",
"f  c #CEDFCE",
"g  c #458343",
"h  c #84AE81",
"j  c #4D8A42",
"k  c #4F8B44",
"l  c #5D9453",
"z  c #4B8941",
"x  c #679B5E",
"c  c #4D8A43",
"v  c #ECF0ED",
"b  c #5D9454",
"n  c #A5C4A0",
"m  c #BAD0B6",
"M  c #42813D",
"N  c #92B792",
"B  c #95B690",
"V  c #5D9455",
"C  c #E3EDE2",
"Z  c #40803C",
"A  c #BAD0B7",
"S  c #9FBF9A",
"D  c #4F8B47",
"F  c #8DB488",
"G  c #98BB91",
"H  c #C7DAC3",
"J  c #AAC6A5",
"K  c #CFDFCD",
"L  c #3E7F3B",
"P  c None",
"I  c #E3EDE3",
"U  c #5A9158",
"Y  c #DDE8DC",
"T  c #47853F",
"R  c #3C7E3A",
"E  c #5F9559",
"W  c #45843E",
"Q  c #E7EDE6",
"!  c #478540",
"~  c #ABC7A9",
"^  c #589058",
"/  c #43833D",
"(  c #9FBF9D",
")  c #4C8941",
"_  c #4E8A43",
"`  c #80AB78",
"'  c #74A36C",
"]  c #77A575",
"[  c #95B894",
"{  c #F0F5EF",
"}  c #F2F6F1",
"|  c #64995D",
" . c #C8DCC5",
".. c #E4EDE3",
"X. c #D2E2D1",
"o. c #4B8748",
"O. c #66985E",
"+. c #89B180",
"@. c #D6E4D5",
"#. c #5A9253",
"$. c #CEDECC",
"%. c #71A070",
"&. c #80AB7B",
"*. c #C8DBC7",
"=. c #46843E",
"-. c #87B07F",
";. c #97BA91",
":. c #C8DAC5",
">. c #BED4BD",
",. c #C0D5BF",
"<. c #BED4BE",
"1. c #639859",
"2. c #44833E",
"3. c #95B991",
"4. c #62965D",
"5. c #8BB283",
"6. c #4D8942",
"7. c #508B4B",
"8. c #6C9D68",
"9. c #78A575",
"0. c #42823D",
"q. c #7DA975",
"w. c #44833F",
"e. c #4D8943",
"r. c #85AF7F",
/* pixels */
"      P O :.J G G J :.O P       ",
"    e  .+.l k ) ) k l +. .e     ",
"  e A 4 j z X ` | 5._ j 4 A e   ",
"P  .4 ) z = : @.>.7 > 6.) 4  .P ",
"O +.j z E ,.. @.f I 8 ' ) j +.O ",
":.l z = ,.Y 9.o.g ^ ( < ) ) l :.",
"J _ / %.$ &.3 w.u Z D j ) ) - J ",
"G =.R N C #.W h ~ F 6 , ) ) ) G ",
"3.0.L [ ..V T t } X.y ; ) ) ) G ",
"* ! 9 ] { r.5 S o a e.) ) ) - J ",
"H % 2.2 p @ q.& 1 ' n 1.) ) b :.",
"O -.i 2.4.*.r Q v w K x ) j +.O ",
"P :.O.+ 2.7.d s <.$.b ) ) 4  .P ",
"  e m q i 2.8.0 U # _ j 4 m e   ",
"    e :.-.% ! M / c b +. .e     ",
"      P O H * B ;.J :.O P       "
};
