/* XPM */
static char *graphic[] = {
/* width height num_colors chars_per_pixel */
"64 64 509 2", 
/* colors */
"   c None",
".  c #FDFDFD",
"X  c #448340",
"o  c #C5D9C2",
"O  c #498740",
"+  c #FBFCFA",
"@  c None",
"#  c #E1EBDF",
"$  c #689B66",
"%  c #4B8842",
"&  c #EBF2EA",
"*  c #D1E1CF",
"=  c #8EB48E",
"-  c #EDF3EC",
";  c #FDFDFD",
":  c #F5F9F5",
">  c #71A16A",
",  c #D3E2D1",
"<  c #4A8646",
"1  c #57904F",
"2  c #E4E9E5",
"3  c #FDFDFD",
"4  c #EFF4EE",
"5  c #FFFFFF",
"6  c #B9D1B6",
"7  c #F7FAF7",
"8  c #FDFDFD",
"9  c #FDFDFD",
"0  c #5C935A",
"q  c #DDE9DC",
"w  c #D5E3D3",
"e  c #47863F",
"r  c #F9FBF9",
"t  c #BBD2B8",
"y  c #FDFDFD",
"u  c #FDFDFD",
"i  c #C3CFC5",
"p  c #FBFCFB",
"a  c #FBFCFB",
"s  c #82AC82",
"d  c #498741",
"f  c #E1EBE0",
"g  c #65995E",
"h  c #FDFDFD",
"j  c None",
"k  c #629660",
"l  c #EBF2EB",
"z  c #6A9C69",
"x  c #FFFFFF",
"c  c #558F4E",
"v  c #EDF3ED",
"b  c #D3E2D2",
"n  c #DDE9DD",
"m  c #5C935B",
"M  c #97BA93",
"N  c #599152",
"B  c #B3CCB0",
"V  c #7DA978",
"C  c #C5D9C4",
"Z  c #498742",
"A  c #E1EBE1",
"S  c #65995F",
"D  c #93B68E",
"F  c #3E7E3B",
"G  c #6A9C6A",
"H  c #558F4F",
"J  c #D2D3D7",
"K  c #D3E2D3",
"L  c #F9F9F9",
"P  c #B1CBAF",
"I  c #D5E3D5",
"U  c #599153",
"Y  c #B3CCB1",
"T  c None",
"R  c #3C7D3A",
"E  c #659960",
"W  c #609560",
"Q  c #BFD4BE",
"!  c #508C45",
"~  c #629662",
"^  c #F7F8F8",
"/  c #76A56D",
"(  c #528C52",
")  c #DDDEE1",
"_  c #5C9452",
"`  c #C3CDC6",
"'  c #5E9554",
"]  c #3A7C39",
"[  c #609656",
"{  c #568E56",
"}  c #4E8B44",
"|  c None",
" . c #6A9D61",
".. c #A8C6A2",
"X. c #659961",
"o. c None",
"O. c #508C46",
"+. c #43823D",
"@. c #89B187",
"#. c #528D48",
"$. c #C1D5C1",
"%. c #6E9F65",
"&. c #4F8A4A",
"*. c #4C8841",
"=. c #548E4A",
"-. c #78A670",
";. c #70A067",
":. c #5E9555",
">. c #3A7C3A",
",. c None",
"<. c None",
"1. c #DCE8D9",
"2. c #9EBF98",
"3. c #5B9257",
"4. c #B5CDB5",
"5. c #41813C",
"6. c #C2D7BE",
"7. c #A0C09A",
"8. c #E6EFE4",
"9. c #9BBC9A",
"0. c #BCD2B7",
"q. c #43823E",
"w. c #508C47",
"e. c #E8F0E6",
"r. c #AAC7A5",
"t. c #5F945B",
"y. c #679A64",
"u. c #4A8740",
"i. c #458340",
"p. c #90B68A",
"a. c #ACC8A7",
"s. c #B4CEB0",
"d. c #699B66",
"f. c None",
"g. c None",
"h. c #548E4B",
"j. c #CDD2D1",
"k. c #F4F8F3",
"l. c #ECF2EA",
"z. c #568F4D",
"x. c #599156",
"c. c #F6F9F5",
"v. c #FEFFFE",
"b. c #75A373",
"n. c #7AA773",
"m. c #D4E2D1",
"M. c #538C4F",
"N. c #DCE8DA",
"B. c #41813D",
"V. c #C2D7BF",
"C. c #DEE9DC",
"Z. c #A0C09B",
"A. c #E6EFE5",
"S. c #CCDECA",
"D. c #FAFBF9",
"F. c #48863F",
"G. c #E8F0E7",
"H. c #4A8741",
"J. c #C6D9C3",
"K. c #458341",
"L. c #F2F7F2",
"P. c #EAF1E9",
"I. c #ACC8A8",
"U. c #548E4C",
"Y. c #ECF2EB",
"T. c #F4F8F4",
"R. c #FCFCFC",
"E. c #DAE7D9",
"W. c #FCFCFC",
"Q. c #F6F9F6",
"!. c #3F803C",
"~. c #7AA774",
"^. c #91B591",
"/. c #5B9259",
"(. c #FCFCFC",
"). c #9EBF9A",
"_. c #FCFCFC",
"`. c #F8FAF8",
"'. c #BAD1B7",
"]. c #41813E",
"[. c #FCFCFC",
"{. c #E6EFE6",
"}. c #DEE9DD",
"|. c #438240",
" X c #488640",
".X c #FAFBFA",
"XX c #E8F0E8",
"oX c #CEDFCD",
"OX c #83AC83",
"+X c #EAF1EA",
"@X c #E2EBE1",
"#X c #699B68",
"$X c #78A673",
"%X c #AEC9AB",
"&X c #73A273",
"*X c #DAE7DA",
"=X c #568F4F",
"-X c #94B890",
";X c #DCE8DC",
":X c #46853F",
">X c #41813F",
",X c #5D935C",
"<X c #659965",
"1X c #679A67",
"2X c #CEDFCE",
"3X c #ACC8AA",
"4X c #4F8A4E",
"5X c #548E4E",
"6X c #478445",
"7X c #D0E0D0",
"8X c #AEC9AC",
"9X c #D1D2D6",
"0X c #538C52",
"qX c #679B5D",
"wX c #4D8A42",
"eX c #64985F",
"rX c #4F8B44",
"tX c #73A36A",
"yX c #518C46",
"uX c #59924F",
"iX c #F6F7F7",
"pX c #518B51",
"aX c #568F51",
"sX c #5B9351",
"dX c #B0CAAF",
"fX c #81AC79",
"gX c #BAD1BA",
"hX c #79A670",
"jX c #4B8941",
"kX c #3B7C3A",
"lX c #4D8A43",
"zX c #438243",
"xX c #3D7D3C",
"cX c #73A36B",
"vX c #518C47",
"bX c #75A46D",
"nX c #6D9E64",
"mX c #4E8949",
"MX c #498549",
"NX c #538D49",
"BX c #BDD4B9",
"VX c #77A56F",
"CX c #72A16F",
"ZX c #9BBD95",
"AX c #5D9454",
"SX c #589054",
"DX c #93B78C",
"FX c #81AC7A",
"GX c #397B39",
"HX c #E3EDE1",
"JX c #9DBE97",
"KX c #3B7C3B",
"LX c #4D8A44",
"PX c #E5EEE3",
"IX c #42813D",
"UX c #CBDDC8",
"YX c #85AE7E",
"TX c #EFF5EE",
"RX c #B3CDAF",
"EX c #D7E5D5",
"WX c #F3F7F2",
"QX c #FBFDFB",
"!X c #D9E6D7",
"~X c #5D9455",
"^X c #F5F8F4",
"/X c #FDFEFD",
"(X c #DBE7D9",
")X c #E3EDE2",
"_X c #FFFFFF",
"`X c #40803C",
"'X c #F7F9F6",
"]X c #488645",
"[X c #649862",
"{X c #DDE8DB",
"}X c #9FBF9A",
"|X c #E5EEE4",
" o c #42813E",
".o c #CBDDC9",
"Xo c None",
"oo c #E7EFE6",
"Oo c #F0F0F1",
"+o c None",
"@o c #518C49",
"#o c #498640",
"$o c None",
"%o c #F1F6F1",
"&o c #E9F0E8",
"*o c #65985D",
"=o c #89B083",
"-o c #F3F7F3",
";o c #72A171",
":o c #EBF1EA",
">o c #6A9B68",
",o c #F5F8F5",
"<o c #3E7F3B",
"1o c #BFD5BD",
"2o c #FDFDFD",
"3o c #C1D6BF",
"4o c #F7F9F7",
"5o c #61965A",
"6o c #85AE80",
"7o c #47853F",
"8o c #6B9D65",
"9o c #E7EFE7",
"0o c #FDFDFD",
"qo c #FDFDFD",
"wo c #70A070",
"eo c #CFDFCE",
"ro c None",
"to c #FDFDFD",
"yo c None",
"uo c #558E4E",
"io c #D1D7D4",
"po c #DBE7DB",
"ao c #629762",
"so c #D3E1D2",
"do c #45843E",
"fo c #DDE8DD",
"go c #A7C5A5",
"ho c #478540",
"jo c #548F49",
"ko c #C3D7C2",
"lo c #6B9D66",
"zo c #CDDECD",
"xo c #4C884B",
"co c #CFDFCF",
"vo c #4E894D",
"bo c #538D4D",
"no c #74A36A",
"mo c #B7CFB6",
"Mo c #5F955A",
"No c #9FBF9D",
"Bo c #61965C",
"Vo c #4C8941",
"Co c #85AE82",
"Zo c #4E8A43",
"Ao c #56904C",
"So c #498643",
"Do c #FDFDFD",
"Fo c #FDFDFD",
"Go c #91B68F",
"Ho c #538D4E",
"Jo c #58914E",
"Ko c #4E894E",
"Lo c #74A36B",
"Po c #7CA974",
"Io c #B5CEB5",
"Uo c #5A9250",
"Yo c #508A50",
"To c #F7F7F8",
"Ro c #43833E",
"Eo c #76A46D",
"Wo c #64995B",
"Qo c #5F955B",
"!o c #B9D0B9",
"~o c #4A8840",
"^o c #FDFDFD",
"/o c #669A5D",
"(o c #FDFDFD",
")o c #5E9454",
"_o c #FDFDFD",
"`o c #428142",
"'o c #82AC7A",
"]o c #4C8942",
"[o c #70A168",
"{o c #689B5F",
"}o c #8CB385",
"|o c #448244",
" O c #4E8A44",
".O c #72A26A",
"XO c #468346",
"oO c #58914F",
"OO c #4B8746",
"+O c #D4E3D1",
"@O c #B2CCAD",
"#O c #90B589",
"$O c #BCD3B8",
"%O c #D8E5D5",
"&O c #578F53",
"*O c #DAE6D7",
"=O c None",
"-O c #E2ECE0",
";O c #ACC9A8",
":O c #3A7B3A",
">O c #6B9D69",
",O c #FDFDFD",
"<O c #8FB58F",
"1O c #4E8A45",
"2O c #E6EEE4",
"3O c #FDFDFD",
"4O c #D4E3D2",
"5O c #F0F5EF",
"6O c #BAD2B7",
"7O c #F8FBF8",
"8O c #CEDECB",
"9O c None",
"0O c #FAFCFA",
"qO c #F2F6F1",
"wO c #FCFDFC",
"eO c #F4F7F3",
"rO c #FCFDFC",
"tO c #EAF2EA",
"yO c #DAE6D8",
"uO c #FEFEFE",
"iO c #3F7F3B",
"pO c #87AF87",
"aO c #FDFDFD",
"sO c #56904F",
"dO c #FDFDFD",
"fO c #EEF4EE",
"gO c #E6EEE5",
"hO c #F0F5F0",
"jO c #77A577",
"kO c #98BB94",
"lO c #F2F6F2",
"zO c #D8E5D7",
"xO c #FDFDFD",
"cO c #F4F7F4",
"vO c #FDFDFD",
"bO c #E2ECE2",
"nO c None",
"mO c #4C8945",
"MO c #6B9D6B",
"NO c #46843E",
"BO c #CADCC9",
"VO c #659864",
"CO c #FAFAFA",
"ZO c #D6E4D6",
"AO c #FDFDFD",
"SO c None",
"DO c None",
"FO c #BED4BD",
"GO c #3D7E3B",
"HO c #619661",
"JO c #44833D",
"KO c #8AB287",
"LO c #C8DBC8",
"PO c #639763",
"IO c #60955A",
"UO c #A6C4A4",
"YO c #D1D3D7",
"TO c #CADCCA",
"RO c None",
"EO c #41803F",
"WO c None",
"QO c #72A26E",
"!O c #FDFDFD",
"~O c #558F4A",
"^O c #FDFDFD",
"/O c #558E55",
"(O c #57904C",
")O c #3B7D3A",
"_O c #FDFDFD",
"`O c #44833E",
"'O c #FDFDFD",
"]O c #FDFDFD",
"[O c #4B8840",
"{O c #498649",
"}O c #538E49",
"|O c #84AD81",
" + c #6FA066",
".+ c #679A5D",
"X+ c None",
"o+ c #4D8942",
"O+ c #558F4B",
"++ c #508B4B",
"@+ c #488542",
"#+ c #93B88C",
"$+ c None",
"%+ c #71A168",
"&+ c #74A371",
"*+ c #57904D",
"=+ c #5A9256",
"-+ c #528C4D",
";+ c #3B7D3B",
":+ c #7BA873",
">+ c #619758",
",+ c #42823D",
"<+ c #A1C19B",
"1+ c #44833F",
"2+ c #FDFDFD",
"3+ c #9EBE9D",
"4+ c #65995C",
"5+ c #ABC8A6",
"6+ c #89B182",
"7+ c #4B8841",
"8+ c #81AB79",
"9+ c #6FA067",
"0+ c #ADC9A8",
"q+ c #6A9C67",
"w+ c None",
"e+ c None",
"r+ c #508B4C",
"t+ c #558F4C",
"y+ c #71A169",
"u+ c #95B98F",
"i+ c #F7FAF6",
"p+ c #7BA874",
"a+ c #D2DED2",
"s+ c #B9D1B5",
"d+ c #D5E3D2",
"f+ c #DDE9DB",
"g+ c #548D50",
"h+ c #BBD2B7",
"j+ c #42823E",
"k+ c #FBFCFA",
"l+ c #5E945B",
"z+ c #FDFDFD",
"x+ c #DFEADD",
/* pixels */
"                                            +oroe+T 2o_odOAO^O'O'O^OAOdO_o2oT e+ro+o                                            ",
"                                      XoDOj tovO2+9 uO0OWXY.2OHXHX2OY.WX0OuO9 2+vOtoj DOXo                                      ",
"                                  $o$+g.vO. wOWX(X$OZXFX[o/o[ AXAX[ /o[oFXZX$O(XWXwO. vOg.$+$o                                  ",
"                              +oX+2o_O[.^X, 7.LoUo} VoVoVoVoVoVoVoVoVoVoVoVo} UoLo7., ^X[._O2oX++o                              ",
"                            DO<.!Ou 4 0.Po*+o+VoVoVoVoVoVoVoVoVoVoVoVoVoVoVoVoVoVoo+*+Po0.4 u !O<.DO                            ",
"                        +o@ 3OR.eO$OcXyXVoVoVoVoVoVoVoVoVoVoVoVoVoVoVoVoVoVoVoVoVoVoVoVoyXcX$OeOR.3O@ +o                        ",
"                      nOo.]Ok+d+fX#.VoVoVoVoVoVoVoVoVoVoVoVoVoVoVoVoVoVoVoVoVoVoVoVoVoVoVoVo#.fXd+k+]O| nO                      ",
"                    yoqo. k.a.' VoVoVoVoVoVoVoVoVoVoVoVoVoVoVoVoVoVoVoVoVoVoVoVoVoVoVoVoVoVoVoVo' a.k.. qoyo                    ",
"                  WOFoW.e.}ovXVoVoVoVoVoVoVoVoVoVoVoVoVoVoVoVoVoVoVoVoVoVoVoVoVoVoVoVoVoVoVoVoVoVovX}oe.W.FoWO                  ",
"                WO(o_.f+-.ZoVoVoVoVoVoVoVoVoVoVoVoVoWotXtX%+O+VoVoVoO.%.tXtX .ZoVoVoVoVoVoVoVoVoVoVoZo-.f+_.(oWO                ",
"              yoFo_.*O9+o+VoVoVoVoVoVoVoVoVoVoVoVohodX^X^XY.noVoVo[OSXn ^X^XS.joVoVoVoVoVoVoVoVoVoVoVoo+9+*O_.Foyo              ",
"            nOqoW.f+9+VoVoVoVoVoVoVoVoVoVoVoVoVodoxX4._X_Xc./ Vo[O5.( {._X_X4O~OVoVoVoVoVoVoVoVoVoVoVoVoVo9+f+W.qonO            ",
"          +o| . e.-.o+VoVoVoVoVoVoVoVoVoVoVoVodokXKX4._X_Xc./ [O5.GX( {._X_X4O~OVoVoVoVoVoVoVoVoVoVoVoVoVoo+-.e.. | +o          ",
"          @ ]Ok.}olXVoVoVoVoVoVoVoVoVoVoVoVodokXGXKX4._X_Xi+6+E ~ HOwo+X_X_X4O~OVoVoVoVoVoVoVoVoVoVoVoVoVoVolX}ok.]O@           ",
"        DO,Ok+0+yXVoVoVoVoVoVoVoVoVoVoVoVodokXGX>.{O$._X_XuO5O5OlOlOhOh _X_XC. .rXVoVoVoVoVoVoVoVoVoVoVoVoVoVoyX0+k+,ODO        ",
"      +o=OR.d+' VoVoVoVoVoVoVoVoVoVoVoVodokX>.pX^.K `._X_X_X_X_X_X_X_X_X_X_XrO8.@O +rXVoVoVoVoVoVoVoVoVoVoVoVoVo' d+R.=O+o      ",
"      X+!OeOfXVoVoVoVoVoVoVoVoVoVoVoVodokX|opOporO_X_X_X_X_X_X_X_X_X_X_X_X_X_X_XuOl...' VoVoVoVoVoVoVoVoVoVoVoVoVofXeO!OX+      ",
"    $o2ou $O#.VoVoVoVoVoVoVoVoVoVoVodo)O/O!o`._X_X_X_X_X_X_X_X_X_X_X_X_X_X_X_X_X_X_XrO* tXwXVoVoVoVoVoVoVoVoVoVoVo#.$Ou 2o$o    ",
"    $+_O4 cXVoVoVoVoVoVoVoVoVoVoVodo)OaoK uO_X_X_X_X_X_X_XuO`.%ov fO-o0Ov._X_X_X_X_X_X_XPXfXZoVoVoVoVoVoVoVoVoVoVoVocX4 _O$+    ",
"  Xog.[.$OyXVoVoVoVoVoVoVoVoVoVodokX~ *X_X_X_X_X_X_X/XXXFOGo;ok m ,XVOjO9.TO%o_X_X_X_X_X_X-OqXVoVoVoVoVoVoVoVoVoVoVoyX$O[.g.Xo  ",
"  DOvO,oPoVoVoVoVoVoVoVoVoVoVodokX{ K _X_X_X_X_XuO{.Nol+|.F GOGOR )OkX>.>.zXG gXQ._X_X_XD.r.}OVoVoVoVoVoVoVoVoVoVoVoVoPo,ovODO  ",
"  j . m.*+VoVoVoVoVoVoVoVoVodokX|o!ouO_X_X_X_Xa koX. o!.iO<oF GOGOR )OkX>.] GX`os bO_XQXs.AoVoVoVoVoVoVoVoVoVoVoVoVoVo*+m.. j   ",
"+ox wOZ.o+VoVoVoVoVoVoVoVodokX>.pO`._X_X_X_XD.8Xr+5.`X`X!.iO<oF GOGOR )OkX>.] GX>.PO2XBXUoVoVoVoVoVoVoVoVoVoVoVoVoVoVoo+Z.wOx +o",
"rovOWXLoVoVoVoVoVoVoVoVodokXGXYopo_X_X_X_XrOB mX,+B.5.`X`X!.iO<oF GOGOR )OkX>.] GXGXg+UoVoVoVoVoVoVoVoVoVoVoVoVoVoVoVoVoLoWXvOro",
"e+2+(XUoVoVoVoVoVoVoVodokXGX:O= rO_X_X_X_XeoaX+.+.,+B.5.`X`X!.iO<oF GOGOR )OkX>.] !.u.VoVoVoVoVoVoVoVoVoVoVoVoVoVoVoVoVoUo(X2+e+",
"SO9 $OrXVoVoVoVoVoVodokXGXGXXOco_X_X_X_XL.$X`OJO+.+.,+B.5.`X`X!.iO<oF GOGOR )OkX`X~oVoVoVoVoVoVoVoVoVoVoVoVoVoVoVoVoVoVorX$O9 SO",
"5 uOZXVoVoVoVoVoVoNOkXGXGXGX<XlO_X_X_X_X3omOdo`OJO+.+.,+B.5.`X`X!.iO<oF GOGOR 5.~oVoVoVoVoVoVoVoVoVoVoVoVoVoVoVoVoVoVoVoVoZXuO5 ",
"_o0OFXVoVoVoVoVo:XR GXGXGXGX<OuO_X_X_X0O6oNOdodo`OJO+.+.,+B.5.`X`X!.iO<oF GOIX~oVoVoVoVoVoVoVoVoVoVoVoVoVoVoVoVoVoVoVoVoVoFX0O_o",
"aOWX%+VoVoVoVo:XGOkX] GXGX;+Io_X_X_X_X&o5o:XNOdodo`OJO+.,+i.=+QoQot./.X <o,+~owXsX:+p.' VoVoVoVoVoVoVoVoVoVoVoVoVoVoVoVoVo%+WXaO",
"AOY./oVoVoVo7o<oR R kX] GX`ozo_X_X_X_X, @o7o:XNOdodo`OJO+.++oXv v v }.0 +.[O(ODX!Xi+^XbXVoVoVoVoVoVoVoVoVoVoVoVoVoVoVoVoVo/oY.AO",
"^OgO[ VoVoe `XF GOR R kX] MXpo_X_X_X_XV.% e 7o:XNOdodo`OJO-+q _X_X_XfOeX7+.+V.r _X_X'XVXVoVoVoVoVoVoVoVoVoVoVoVoVoVoVoVoVo[ gO^O",
"'O)X)oVoF.5.!.<oF GOR R kXvoA _X_X_X_X6 H.F.e 7o:XNOdodo`Oboq _X_X_XTX . .w uO_X_X_Xi+-.VoVoVoVoVoVoVoVoVoVoVoVoVoVoVoVoVo)o)X'O",
"'OHXAX#o,+5.`X!.<oF GOR R 4X@X_X_X_X_X6O%  XF.e 7o:XNOdodoHo}._X_X_XTXp+8OuO_X_X_X_X7 hXVoVoVoVoVoVoVoVoVoVoVoVoVoVoVoVoVo' HX'O",
"^OgO~XJO,+B.5.`X!.<oF GOR xofo_X_X_X_Xo LXO  XF.e 7o:XNOdo5X}._X_X_XqOJ.rO_X_X_XrO-ooobXVoVoVoVoVoVoVoVoVoVoVoVoVoVoVoVoVo[ A.^O",
"AO& IOJO+.,+B.5.`X!.<oF GO6Xso_X_X_X_XEXt+u.O  XF.e 7o:XNO5X}._X_X_X/XrO_X_XQ.C @.d.BoNXVoVoVoVoVoVoVoVoVoVoVoVoVoVoVoVoVo/oY.AO",
"aOL.8o`OJO+.,+B.5.`X!.<oF >XQ _X_X_X_X- {o~ou.O F.F.e 7o:Xuo}._X_X_X_X_X_Xl KO< `XRo[OVoVoVoVoVoVoVoVoVoVoVoVoVoVoVoVoVoVo%+WXaO",
"(o.XV do`OJO+.,+B.5.`X!.<o<o3+_X_X_X_XrO#O[O~ou.O F.F.e 7oH }._X_X_X_X_XWXCo1+5.`O7+VoVoVoVoVoVoVoVoVoVoVoVoVoVoVoVoVoVoVo'o0O(o",
"5 uOkONOdo`OJO+.,+B.5.`X!.<ob.`._X_X_X_XUXh.[O~ou.O F.F.e =X}._X_X_X_XuO%X@+,+do7+VoVoVoVoVoVoVoVoVoVoVoVoVoVoVoVoVoVoVoVoZXuO5 ",
"SO(.'.d NOdo`OJO+.,+B.5.`X!.M.}._X_X_X_Xc.YX7+[O~ou.O F.F.sO}._X_X_X_XP.S +.NO7+VoVoVoVoVoVoVoVoVoVoVoVoVoVoVoVoVoVoVoVorX$O(.SO",
"e+2+E.c 7oNOdo`OJO+.,+B.5.`X].gouO_X_X_X_X%O>+7+[O~ou.O F.1 }._X_X_X_X1oSo:X7+VoVoVoVoVoVoVoVoVoVoVoVoVoVoVoVoVoVoVoVoVoUo1.2+e+",
"roxOWXy+7o7oNOdo`OJO+.,+B.5.`X[X:o_X_X_X_X/Xh+Jo7+[O~ou.O 1 }._X_X_XuO-Xe 7+VoVoVo! ' wXVoVoVoVoVoVoVoVoVoVoVoVoVoVoVoVoLoWXxOro",
"+ox wO).#oe 7oNOdo`OJO+.,+B.5.|.UO/X_X_X_X_X+ RXuX7+[O~ou.oO{Xh h h Q.n.jXVoVoVo~OJX%O-.wXVoVoVoVoVoVoVoVoVoVoVoVoVoVoo+<+wOx +o",
"  j . , U.F.e 7oNOdo`OJO+.,+B.5.&OI _X_X_X_X_XQX6.{o]o[O~o1 a+OoOoOo2 nXVoVowX4+s+7O_Xf Eoo+VoVoVoVoVoVoVoVoVoVoVoVoVo*+m.z+j   ",
"  DOxO^X~.O F.7o7oNOdo`OJO+.,+B.5.CXP._X_X_X_X_XuO# u+AXVoz.i ) ) ) io*owX_ #+x+/X_X_X_Xx+tXVoVoVoVoVoVoVoVoVoVoVoVoVoPo,oxODO  ",
"  Xo9O[.h+1OO F.7o7oNOdo`OJO+.,+B.q.|O4 _X_X_X_X_X_X+ f+5+=o` YO9XJ j.D r.(X0O_X_X_X_X_X0O2.wXVoVoVoVoVoVoVoVoVoVoVoyX$O[.9OXo  ",
"    X+_O4 .OO O F.7o7oNOdo`OJO+.,+B.1+Co+X_X_X_X_X_X_X_X_X0OL ToiX^ COa _X_X_X_X_X_X_X7 0+*+VoVoVoVoVoVoVoVoVoVoVoVoLo4 _OX+    ",
"    $o5 u $OvXO O F.7o7oNOdo`OJO+.,+B.q.&+zO/X_X_X_X_X_X_X_X_X_X_X_X_X_X_X_X_X_X_X_XY.M }OVoVoVoVoVoVoVoVoVoVoVoVo#.$Ou 5 $o    ",
"      X+!OeO8+~oO O F.7o7oNOdo`OJO+.,+B.B.x.3XfO_X_X_X_X_X_X_X_X_X_X_X_X_X_X_X_Xr LOQO OVoVoVoVoVoVoVoVoVoVoVoVoVo'oeO!OX+      ",
"      +o,.; d+AX~oO O F.7o7oNOdo`OJO+.,+B.5.K.>OY 9orO_X_X_X_X_X_X_X_X_X_X_Xr zoOX&.7+VoVoVoVoVoVoVoVoVoVoVoVoVo:.d+; ,.+o      ",
"        DO,Op ;OO.~oO O F.e 7oNOdo`OJO+.,+B.5.`X|.0 BO_X_XuO,o,oQ.,olOh _X_XZOKoIX7+VoVoVoVoVoVoVoVoVoVoVoVoVovX0+p ,ODO        ",
"          @ ]Ok.}oo+~oO O F.e 7oNOdo`OJO+.,+B.5.`X].mo_X_X4opO#XMO1X&XtO_X_X7XOO7+VoVoVoVoVoVoVoVoVoVoVoVoVoZo}ok.]O@           ",
"          +o| z+G.-.*.~oO O F.7o7oNOdo`OJO+.,+B.5. omo_X_X,o>oR kX] ( {._X_Xb =.VoVoVoVoVoVoVoVoVoVoVoVoVoo+-.G.z+| +o          ",
"            nO0oW.C.9+7+~oO O F.7o7oNOdo`OJO+.,+B.j+mo_X_X: z R R kX0X{._X_X4O~OVoVoVoVoVoVoVoVoVoVoVoVoVo;.C.W.0onO            ",
"              yoDo_.yO9+*.~oO O F.7o7oNOdo`OJO+.,+q.P T.T.tO$ GOR R ( ;XcOcO.ojoVoVoVoVoVoVoVoVoVoVoVoo+;.yO_.Doyo              ",
"                RO^o_.C.-.o+~oO O F.7o7oNOdo`OJO+.,+3.q+q+y.]XF GOR EOW <X<Xg ZoVoVoVoVoVoVoVoVoVoVoZo-.C._.^oRO                ",
"                  RODo3 G.}oO.~oO O F.7o7oNOdo`OJO+.,+B.5.`X!.<oF GOR R R JOjXVoVoVoVoVoVoVoVoVoVovX}oG.3 DoRO                  ",
"                    yo0oz+k.I.)o~oO O F.7o7oNOdo`OJO+.,+B.5.`X!.<oF GOGO`OjXVoVoVoVoVoVoVoVoVoVo:.0+k.z+0oyo                    ",
"                      nO| ]Op d+8+w.O O F.e 7oNOdo`OJO+.,+B.5.`X!.<o<odojXVoVoVoVoVoVoVoVoVo#.'od+p ]O| nO                      ",
"                        +o@ ,O; eO$O.O1OO F.e 7oNOdo`OJO+.,+B.5.`X`XNOVoVoVoVoVoVoVoVoVoyXLo$OeO; ,O@ +o                        ",
"                            yo,.!Ou 4 t ~.U.#o7o7oNOdo`OJO+.,+B.5.:XVoVoVoVoVoVoVoo+*+Po$O4 u !O,.yo                            ",
"                              +oX+5 _Oy ,o, }X> c Z NOdo`OJO+.+.7oVoVoVoVoVorXUoLo<++O: y _O5 X++o                              ",
"                                  $oX+f.xOz+wOWX(X'.kOV loMoU N AX[ /o%+'oZX$ON.WXwOz+xOf.X+$o                                  ",
"                                      XoDOj x xO2+8 uO.XWX& |XHX)XA.Y.WX0OuO8 2+xOx j DOXo                                      ",
"                                            +orow+SO5 (oaOAO^O'O'O^OAOaO(o5 SOw+ro+o                                            "
};
