/* XPM */
static char *graphic[] = {
/* width height num_colors chars_per_pixel */
"32 32 285 2", 
/* colors */
"   c None",
".  c None",
"X  c #498740",
"o  c #D6E0D6",
"O  c #9BBC95",
"+  c None",
"@  c None",
"#  c #538E4B",
"$  c #E8F0E5",
"%  c #C9DBC6",
"&  c #F5F9F5",
"*  c #EFF4EE",
"=  c #F7FAF7",
"-  c #47863F",
";  c #F9FBF9",
":  c #E5E6E9",
">  c #5B9253",
",  c #FBFDFB",
"<  c #FBFBF8",
"1  c #FBFCFB",
"2  c #448341",
"3  c #FBFBF8",
"4  c None",
"5  c #4B8843",
"6  c #FDFDFD",
"7  c #E3ECE2",
"8  c #71A16B",
"9  c #EDF3ED",
"0  c #CBDCC9",
"q  c #EFF4EF",
"w  c #599152",
"e  c #FBFDFB",
"r  c #E3ECE3",
"t  c #A5C3A2",
"y  c #579051",
"u  c #D5E3D5",
"i  c #448343",
"p  c #3C7D3A",
"a  c #BDD3BC",
"s  c #468445",
"d  c #4D8947",
"f  c #AFCAAE",
"g  c #76A56D",
"h  c None",
"j  c #4A8649",
"k  c #E4ECE2",
"l  c #97BA95",
"z  c #3A7C39",
"x  c #689C5F",
"c  c #B2CDAD",
"v  c #6A9D61",
"b  c #A8C6A2",
"n  c #468446",
"m  c #43823D",
"M  c #89B187",
"N  c #AAC7A4",
"B  c #6C9E63",
"V  c #528D48",
"C  c #4D8948",
"Z  c #B1CBB1",
"A  c #DCE8DB",
"S  c #568F4C",
"D  c #3A7C3A",
"F  c #82AD7B",
"G  c #609657",
"H  c #3C7D3C",
"J  c #41813C",
"K  c #77A474",
"L  c #8EB588",
"P  c #64985B",
"I  c #88B081",
"U  c #4D8949",
"Y  c #92B78C",
"T  c #A3BEA0",
"R  c #B6CFB2",
"E  c #FEFFFE",
"W  c #41813D",
"Q  c #FAFBF9",
"!  c #48863F",
"~  c #528D4A",
"^  c #4A8741",
"/  c #E2EBE0",
"(  c #ACC8A8",
")  c #F2F7F2",
"_  c #D0E0CE",
"`  c #ECF2EB",
"'  c #94B88F",
"]  c #3F803C",
"[  c #7EA978",
"{  c #438240",
"}  c #E8F0E8",
"|  c #E0EADF",
" . c #C6D9C4",
".. c #71A171",
"X. c #E2EBE1",
"o. c #8AB185",
"O. c #C8DAC6",
"+. c #ECF2EC",
"@. c #518B4F",
"#. c #DAE7DA",
"$. c #5D935C",
"%. c #F8FBF8",
"&. c #C6D9C5",
"*. c #D0E0D0",
"=. c #D2E1D2",
"-. c #589052",
";. c #60965B",
":. c #468540",
">. c #679B5D",
",. c #DFE4E1",
"<. c #62975D",
"1. c #4D8A42",
"2. c #4F8B44",
"3. c #518C46",
"4. c #4F8A4F",
"5. c #5B9351",
"6. c #538D48",
"7. c #E3EBE1",
"8. c #E9F0E9",
"9. c #77A56E",
"0. c #659A5C",
"q. c #DDE8DB",
"w. c #BAD1BA",
"e. c #5F9555",
"r. c #679B5E",
"t. c #BBD3B7",
"y. c #3B7C3A",
"u. c #4D8A43",
"i. c #699C60",
"p. c #4A8745",
"a. c #8FB588",
"s. c #599250",
"d. c #518C47",
"f. c #D9E6D6",
"g. c #B9D2B6",
"h. c #5F9556",
"j. c #85AE7E",
"k. c #4A8746",
"l. c #CDDECA",
"z. c #548E51",
"x. c #91B68B",
"c. c #F1F6F0",
"v. c #D7E5D5",
"b. c #5B9353",
"n. c #568F53",
"m. c #94B894",
"M. c #5D9455",
"N. c #FDFEFD",
"B. c #E3EDE2",
"V. c #5F9557",
"C. c #FFFFFF",
"Z. c #7EA97D",
"A. c #40803C",
"S. c None",
"D. c #EFF5EF",
"F. c #E7EFE6",
"G. c #8FB58A",
"H. c #F1F6F1",
"J. c #5B9354",
"K. c None",
"L. c #F3F7F3",
"P. c #E8EFE5",
"I. c #D9E6D8",
"U. c #F5F8F5",
"Y. c #3E7F3B",
"T. c #7CA87C",
"R. c #E2ECDF",
"E. c #5C925A",
"W. c #47853F",
"Q. c #82AB82",
"!. c #FDFDFD",
"~. c #E9F0E9",
"^. c #91B68D",
"/. c #3E7F3C",
"(. c #45843E",
"). c #A9C6A7",
"_. c #CDDECD",
"`. c #518C4B",
"'. c #4C884B",
"]. c #D1E0D1",
"[. c #9DBE9B",
"{. c #45843F",
"}. c #669A5C",
"|. c #699C65",
" X c #4C8941",
".X c #689B5E",
"XX c #56904C",
"oX c #4E8A43",
"OX c #508B45",
"+X c #58914E",
"@X c #B5CEB5",
"#X c #5A9250",
"$X c #93B791",
"%X c #76A46D",
"&X c #4A8840",
"*X c #88B181",
"=X c #8AB283",
"-X c #ABC7AB",
";X c #B2CCAD",
":X c #5A9251",
">X c #5D945A",
",X c #E6E7E9",
"<X c #92B68B",
"1X c #5F955C",
"2X c #9CBD96",
"3X c #BED4BA",
"4X c #DCE7DB",
"5X c #E2ECE0",
"6X c #BAD2B7",
"7X c #B2CCAE",
"8X c #EEF4ED",
"9X c #E6EEE4",
"0X c #8EB488",
"qX c #F8FBF8",
"wX c #D6E4D4",
"eX c #F2F6F1",
"rX c #7EAA78",
"tX c #FAFCFA",
"yX c #9ABC95",
"uX c #79A678",
"iX c #FCFDFC",
"pX c #BED4BB",
"aX c None",
"sX c #F1F5F0",
"dX c #FEFEFE",
"fX c #478544",
"gX c #ECF3EC",
"hX c #E4EDE3",
"jX c #6D9E6C",
"kX c #5A9253",
"lX c #F2F6F2",
"zX c #D8E5D7",
"xX c #BED4BC",
"cX c #3D7E3A",
"vX c #F1F5F1",
"bX c #E2ECE2",
"nX c #F1F5F1",
"mX c #E4EDE4",
"MX c #46843E",
"NX c #4B8749",
"BX c #5A9254",
"VX c #E5EFE5",
"CX c #3D7E3B",
"ZX c #44833D",
"AX c #A6C4A4",
"SX c #CCDDCC",
"DX c #CFD9D0",
"FX c None",
"GX c #3B7D3A",
"HX c #619757",
"JX c #4F894E",
"KX c #92B68F",
"LX c #80AB7D",
"PX c #639859",
"IX c #518D47",
"UX c #44833E",
"YX c #E3ECE2",
"TX c #A6C4A5",
"RX c #498649",
"EX c #E3ECE2",
"WX c #538E49",
"QX c #93B88C",
"!X c #4D8942",
"~X c #488542",
"^X c None",
"/X c #B1CDAD",
"(X c #5A9256",
")X c #57904D",
"_X c #7EAA7C",
"`X c #ACC7AB",
"'X c #42823D",
"]X c #A1C19B",
"[X c #C5D9C1",
"{X c #7FAA77",
"}X c #44833F",
"|X c #ABC8A6",
" o c #6D9F65",
".o c #4B8841",
"Xo c #468441",
"oo c #6A9C67",
"Oo c #4D8943",
"+o c #AFCAAA",
"@o c #95B98F",
"#o c #F9FBF8",
"$o c #63985B",
/* pixels */
"                  K.^Xh 3 vX$ YXYX$ vX3 h ^XK.                  ",
"              K.@ e 7.t.Y %X>.HXHX>.%XY t.7.e @ K.              ",
"            FX!.q.2X}.OX X X X X X X X XOX}.2Xq.!.FX            ",
"        S.. nX7X0.1. X X X X X X X X X X X X1.0.7XnX. S.        ",
"      S.4 8.x.V  X X X X1.PX.XIX X5.v +X X X X XV x.8.4 S.      ",
"      + 8.I 2. X X X X Xd  ./ x - l 8Xa. X X X X X2.I 8.+       ",
"    FXnXx.2. X X X X XUXi ].eXrXE.-XdX@o X X X X X X2.x.nXFX    ",
"  K.!.c V  X X X X XUXj Q.} N.* gXU.C.% 9.3. X X X X XV c !.K.  ",
"  + q.0. X X X X X:.jXSX; C.C.C.C.C.C.C.c.;Xe. X X X X X0.q.+   ",
"K.< 2X1. X X X X:.Z.~.C.E D.SXf TXZ *.L.C.N.[X+X X X X X1.2X< K.",
"^Xk }. X X X XUXjX~.C.Q xXoofX/.p H s .._.= N V  X X X X X}.k ^X",
"h t.OX X X XUXRXSXC.tX).U A.] Y.CXp y.z 4.o.XX X X X X X XOXt.h ",
"e Y  X X XUXD T.; C.O.`.'XW A.] Y.CXp GXJ .o X X X X X X X XY e ",
"vX%X X XUXz H @XC.= [ (.ZX'XW A.] Y.CX'X XoX X X X X X X X X%XvX",
"P.>. XMXcXz n u C.hXJ.MX(.ZXC l AXK {.i.b QX!X X X X X X X X>.P.",
"YXG W.] CXGXJXbXC.wX~ W.MX(.y 7 C.( F B.dXR 1. X X X X X X XHXYX",
"YXM.'XA.Y.CX@.r C.v.# ! W.MX-.7 C._ F.N.lX|X1. X X X X X X XHXYX",
"P.;.m W A.Y.NXI.C.9XG X ! W.w 7 C.iX) t |.:X X X X X X X X Xr.P.",
"sX8 UXm W A.{ a C.#oj.&XX ! kXB.C.1 [.~XX  X X X X X X X X Xg vX",
"e G.MXUXm W A.M 1 C.l.s.&XX > B.C.| BXX  X X X X X X X X X XY e ",
"h g.5 MXUXm W z.zXC.1 +oS &Xb.X.6 pXu.1.B {X2. X X X X X XOXt.h ",
"^XEX$oW.MXUXm 'X_XH.C.Q 3X oV.DX,XT #XL 5X8X=Xu. X X X X X}.k ^X",
"K.%.yX^ W.MXUXm XoKXH.C.dX` 0 ,.: o f.qXC.= ]X2. X X X X1.2X%.K.",
"  + A P X W.MXUXm XoLX#.iXC.C.C.C.C.C.dXmX' WX X X X X X0.q.+   ",
"  K., /Xd.X W.MXUXm 'Xn.$X+.N.H.q & C.w.<.u. X X X X X6.c , K.  ",
"    FXnXx.OoX W.MXUXm W k.=.H.uX$.`XdX^..o X X X X X2.<XnXFX    ",
"      . 8.I OoX W.MXUXm p.&.| E.GXm.9 0X X X X X X2.*X8..       ",
"      S.aX8.x.d.X W.MXUX}X(X>X2 CX'.1X)X X X X XV <X8.aXS.      ",
"        S.. nX/XP ^ W.MXUXm W A.Y.A.X  X X X1.0.c nX. S.        ",
"            FX, 4XO $o5 MXUXm W 'XX  X XOX}.2Xq., FX            ",
"              K.+ %.EX6XG.8 ;.BXh.r.g Y t.k %.+ K.              ",
"                  K.^Xh e sXVXR.YXP.vXe h ^XK.                  "
};
